# xmcd
#
# Track frame offsets: 
#        150
#        15286
#        31730
#        47903
#        62401
#        76027
#        93606
#        111405
#        132100
#        148050
#        164718
#        179694
#
# Disc length: 2635 seconds
#
# Revision: 0
# Processed by: cddbd v1.5.2PL0 Copyright (c) Steve Scherf et al.
# Submitted via: ExactAudioCopy v0.95b4
#
DISCID=9d0a490c
DTITLE=Entre Nous - Chimène Badi
DYEAR=2005
DGENRE=Chanson
TTITLE0=entre nous
TTITLE1=je sais
TTITLE2=si j'avais su t'aimer
TTITLE3=le jour d'après
TTITLE4=je vais te chercher
TTITLE5=pour l'amour qui nous reste
TTITLE6=en attendant
TTITLE7=on a l'amour qu'on mérite
TTITLE8=retomber amoureux
TTITLE9=un père
TTITLE10=la vie qui gagne
TTITLE11=le mot fin
EXTD=
EXTT0=
EXTT1=
EXTT2=
EXTT3=
EXTT4=
EXTT5=
EXTT6=
EXTT7=
EXTT8=
EXTT9=
EXTT10=
EXTT11=
PLAYORDER=
